<?xml version="1.0" encoding="UTF-8" standalone="no"?>
<!-- Created with Inkscape (http://www.inkscape.org/) -->

<svg
   width="140.85245mm"
   height="114.4781mm"
   viewBox="0 0 140.85245 114.4781"
   version="1.1"
   id="svg1"
   inkscape:version="1.3.2 (091e20e, 2023-11-25, custom)"
   sodipodi:docname="edge.svg"
   xmlns:inkscape="http://www.inkscape.org/namespaces/inkscape"
   xmlns:sodipodi="http://sodipodi.sourceforge.net/DTD/sodipodi-0.dtd"
   xmlns="http://www.w3.org/2000/svg"
   xmlns:svg="http://www.w3.org/2000/svg">
  <sodipodi:namedview
     id="namedview1"
     pagecolor="#ffffff"
     bordercolor="#000000"
     borderopacity="0.25"
     inkscape:showpageshadow="2"
     inkscape:pageopacity="0.0"
     inkscape:pagecheckerboard="0"
     inkscape:deskcolor="#d1d1d1"
     inkscape:document-units="mm"
     inkscape:zoom="0.69219276"
     inkscape:cx="278.82407"
     inkscape:cy="210.20156"
     inkscape:window-width="1920"
     inkscape:window-height="991"
     inkscape:window-x="2391"
     inkscape:window-y="-9"
     inkscape:window-maximized="1"
     inkscape:current-layer="layer1" />
  <defs
     id="defs1" />
  <g
     inkscape:label="Layer 1"
     inkscape:groupmode="layer"
     id="layer1"
     transform="translate(-31.255254,-92.953115)">
    <g
       id="edge"
       transform="matrix(0.03527778,0,0,-0.03527778,-163.01323,430.87897)">
      <path
         d="m 6541,9564 c -60,-13 -91,-28 -91,-43 0,-4 21,-29 48,-57 26,-28 55,-65 66,-83 l 18,-33 -28,15 c -60,29 -131,42 -239,42 -134,0 -210,-23 -319,-96 -121,-80 -123,-96 -19,-134 70,-25 159,-85 127,-85 -78,0 -253,-74 -329,-140 -97,-84 -205,-246 -205,-309 0,-24 1,-24 95,-22 39,0 94,-2 123,-6 l 54,-8 -61,-43 c -157,-110 -271,-327 -274,-519 -1,-56 2,-77 15,-90 16,-15 21,-14 70,19 57,38 103,63 143,78 24,9 24,9 -10,-53 -72,-133 -105,-299 -85,-428 13,-87 43,-159 65,-159 8,0 45,23 80,51 l 65,51 v -80 c 0,-99 26,-187 79,-268 48,-73 89,-112 165,-158 85,-51 98,-48 130,23 14,32 26,65 26,72 0,8 11,3 27,-13 25,-26 26,-29 14,-70 -7,-24 -42,-94 -78,-156 -72,-125 -84,-171 -61,-238 l 15,-42 -71,-11 c -39,-7 -151,-16 -249,-21 -98,-5 -182,-12 -187,-15 -15,-9 -12,-31 5,-45 19,-16 358,3 472,26 77,15 82,15 114,-3 32,-17 86,-18 984,-23 l 950,-5 59,-29 c 56,-27 63,-28 165,-23 141,7 208,27 226,70 7,18 22,40 32,49 23,21 96,54 142,63 l 34,7 -7,-50 c -13,-99 -27,-124 -87,-153 -59,-29 -84,-52 -74,-69 11,-17 43,-11 104,20 51,25 61,27 71,15 7,-8 28,-24 46,-36 28,-17 37,-19 49,-9 24,20 18,34 -31,69 -38,26 -45,36 -39,54 3,12 11,53 17,90 l 12,69 35,-7 c 55,-10 127,-52 158,-90 l 28,-35 h 183 c 157,0 183,2 189,16 12,32 -15,38 -178,42 l -161,4 -38,38 c -37,37 -112,72 -183,85 l -37,7 v 63 63 l 58,22 c 210,84 313,198 357,394 22,98 18,140 -14,144 -42,6 -149,-29 -210,-68 l -59,-38 -7,61 c -8,73 -39,170 -66,208 -17,25 -23,27 -49,18 -41,-15 -117,-100 -148,-167 -33,-70 -42,-205 -19,-290 16,-59 17,-58 -54,-81 -35,-11 -47,-7 -350,127 -173,77 -396,175 -497,217 -166,71 -182,80 -175,99 3,12 6,47 5,78 -2,105 -72,242 -184,363 -90,96 -89,108 4,160 129,72 227,193 258,318 7,26 18,47 25,47 25,0 65,42 75,78 14,55 -3,108 -43,132 -36,22 -103,26 -141,9 -56,-26 -122,34 -166,152 l -23,61 23,46 c 72,148 65,309 -22,444 -58,92 -201,201 -242,185 -11,-4 -16,-19 -16,-44 0,-33 -17,-113 -23,-113 -2,0 -26,22 -55,49 -61,57 -182,123 -268,145 -76,20 -243,20 -333,0 z m 301,-55 c 120,-25 268,-126 329,-226 38,-60 54,-44 88,89 10,37 20,70 23,73 3,4 36,-21 72,-55 88,-83 128,-162 134,-268 3,-63 -1,-89 -20,-142 -26,-73 -25,-72 -113,-40 -84,31 -179,50 -250,50 -123,0 -278,-51 -364,-119 l -37,-29 -42,54 c -49,64 -104,93 -172,94 -89,0 -144,-61 -144,-160 1,-83 43,-152 126,-204 l 26,-17 -44,-75 c -199,-336 -303,-684 -304,-1009 0,-131 13,-217 44,-293 l 22,-57 -24,-65 c -14,-36 -26,-67 -28,-69 -8,-9 -95,53 -137,98 -70,75 -109,165 -115,263 -3,47 0,96 8,124 9,31 10,48 2,56 -17,17 -69,-1 -137,-47 l -65,-43 -10,37 c -15,54 -12,207 6,281 19,82 72,193 118,247 40,46 43,55 22,72 -21,18 -160,-22 -232,-65 -31,-19 -58,-34 -60,-34 -8,0 8,85 28,155 11,39 36,99 55,135 48,87 161,198 238,235 65,31 76,41 68,61 -10,26 -157,64 -250,64 -29,0 -53,4 -53,8 0,19 84,136 130,183 96,96 199,141 355,156 97,10 103,20 44,87 -46,52 -102,91 -158,110 l -36,13 55,31 c 175,101 356,108 522,20 78,-42 108,-44 108,-9 0,33 -39,122 -76,172 -19,26 -34,49 -34,52 0,17 209,21 282,6 z m -282,-598 c 21,-11 53,-45 78,-82 23,-35 47,-66 52,-67 6,-2 30,14 54,35 62,54 132,90 222,113 126,33 257,22 389,-32 l 57,-23 35,-86 c 38,-96 90,-164 140,-185 29,-13 33,-19 33,-52 0,-44 20,-76 60,-97 l 30,-15 -19,-50 c -46,-122 -129,-212 -256,-279 -85,-44 -85,-45 -56,-229 34,-218 34,-222 18,-222 -8,0 -99,35 -203,79 -269,111 -259,108 -283,87 -19,-17 -21,-17 -57,11 -56,42 -110,116 -129,175 -20,63 -37,83 -60,74 -22,-8 -15,-49 24,-131 34,-74 70,-115 172,-201 44,-36 91,-86 106,-111 55,-95 19,-181 -74,-170 -35,4 -54,15 -106,64 -35,32 -86,72 -113,87 -118,68 -156,113 -194,225 -21,63 -30,77 -49,79 -23,4 -24,2 -18,-48 14,-114 89,-221 206,-290 36,-22 81,-52 100,-68 l 35,-29 -23,-39 c -40,-67 -88,-195 -116,-304 -62,-247 -84,-297 -164,-383 -46,-49 -155,-120 -203,-132 -23,-6 -27,-3 -38,30 -17,52 -10,76 60,195 57,99 90,180 90,223 0,10 -16,38 -35,61 -80,97 -115,219 -115,396 0,327 111,691 306,1006 24,39 44,78 44,87 0,9 -26,37 -57,62 -63,50 -103,112 -103,157 0,33 23,84 42,91 29,12 85,6 118,-12 z m 966,-1163 c 55,-82 84,-160 84,-228 0,-62 -10,-82 -54,-109 -61,-38 -131,-18 -161,46 -14,28 -14,37 -2,66 8,18 29,50 47,70 l 33,38 -12,92 c -7,50 -14,103 -17,117 l -6,25 21,-25 c 12,-14 42,-55 67,-92 z m -446,-45 c 58,-24 144,-60 191,-79 l 86,-36 -21,-53 -21,-53 -75,28 c -194,72 -185,67 -207,112 -11,24 -40,65 -64,92 -50,57 -51,57 111,-11 z m 286,-314 24,-24 -51,-104 c -39,-80 -64,-117 -114,-165 -107,-106 -250,-166 -395,-166 -60,0 -188,15 -195,22 -4,3 47,208 66,266 6,21 29,76 51,123 l 40,86 36,-19 c 27,-14 51,-18 90,-15 65,5 102,30 121,83 l 14,40 144,-52 c 88,-31 154,-60 169,-75 z m 1595,-44 c 20,-121 -8,-260 -68,-333 l -23,-27 -25,28 c -39,43 -58,126 -53,226 5,96 21,137 84,210 l 38,44 18,-39 c 9,-21 22,-70 29,-109 z m -1051,-83 c 379,-166 644,-282 647,-286 2,-2 -21,-15 -51,-30 -98,-48 -163,-148 -173,-265 -7,-88 3,-98 78,-72 50,17 303,118 392,155 l 37,16 v -49 -49 l -42,-7 c -94,-16 -178,-67 -208,-124 -17,-34 -25,-39 -76,-50 -100,-20 -202,-14 -259,14 -50,24 -51,24 -356,25 h -306 l -37,76 c -31,61 -47,81 -83,104 -25,16 -64,32 -87,35 l -42,7 -13,61 c -7,33 -26,96 -41,140 l -29,79 46,57 c 44,53 123,200 123,228 0,10 10,12 40,7 43,-7 119,15 140,41 7,8 15,13 19,11 4,-3 130,-59 281,-124 z m 1360,30 c 0,-40 -39,-155 -71,-208 -45,-75 -107,-127 -205,-175 -44,-21 -84,-39 -87,-39 -20,0 -2,56 33,107 23,31 50,88 61,125 27,88 77,135 196,184 70,28 73,29 73,6 z M 7244,6913 c 14,-49 29,-106 33,-128 9,-63 18,-73 77,-85 69,-14 114,-45 143,-95 35,-61 32,-64 -49,-60 -40,2 -139,4 -219,4 l -146,1 -13,78 c -11,67 -46,204 -65,253 -4,12 4,18 32,27 21,6 68,29 103,51 36,22 68,40 71,41 3,0 18,-39 33,-87 z m 1569,42 c 24,-22 28,-31 25,-71 l -3,-47 -200,-79 c -110,-43 -211,-81 -224,-85 -23,-6 -23,-4 -17,33 15,79 73,162 135,193 20,10 65,25 101,34 36,9 81,23 100,31 46,20 50,20 83,-9 z m -1986,-78 122,-1 21,-79 c 25,-93 50,-205 50,-229 0,-17 -16,-18 -200,-18 -167,0 -199,2 -194,14 9,23 -22,71 -72,114 l -46,39 28,40 c 16,21 40,62 53,90 l 23,50 47,-9 c 25,-6 101,-10 168,-11 z m -301,-251 c 25,-25 44,-51 42,-58 -3,-9 -35,-14 -119,-16 -63,-1 -125,0 -138,3 -23,6 -21,9 29,36 29,16 67,40 84,54 17,13 37,24 43,25 7,0 33,-20 59,-44 z"
         id="path1" />
      <path
         d="m 7032,8604 c -12,-8 -24,-30 -28,-48 -17,-93 67,-130 95,-43 21,63 -23,122 -67,91 z"
         id="path2" />
      <path
         d="m 7363,8614 c -7,-3 -17,-21 -23,-39 -14,-42 4,-88 36,-93 26,-4 40,13 49,60 6,29 3,40 -14,57 -21,21 -27,23 -48,15 z"
         id="path3" />
      <path
         d="m 7161,8241 c -15,-27 24,-81 79,-109 34,-18 57,-22 92,-19 55,5 98,30 98,57 0,28 -16,33 -49,15 -60,-30 -130,-12 -171,45 -25,35 -35,37 -49,11 z"
         id="path4" />
    </g>
  </g>
</svg>
