<?xml version="1.0" encoding="UTF-8" standalone="no"?>
<!-- Created with Inkscape (http://www.inkscape.org/) -->

<svg
   width="137.79416mm"
   height="110.49989mm"
   viewBox="0 0 137.79416 110.49989"
   version="1.1"
   id="svg1"
   inkscape:version="1.3.2 (091e20e, 2023-11-25, custom)"
   sodipodi:docname="lawn.svg"
   xmlns:inkscape="http://www.inkscape.org/namespaces/inkscape"
   xmlns:sodipodi="http://sodipodi.sourceforge.net/DTD/sodipodi-0.dtd"
   xmlns="http://www.w3.org/2000/svg"
   xmlns:svg="http://www.w3.org/2000/svg">
  <sodipodi:namedview
     id="namedview1"
     pagecolor="#ffffff"
     bordercolor="#000000"
     borderopacity="0.25"
     inkscape:showpageshadow="2"
     inkscape:pageopacity="0.0"
     inkscape:pagecheckerboard="0"
     inkscape:deskcolor="#d1d1d1"
     inkscape:document-units="mm"
     inkscape:zoom="0.69219276"
     inkscape:cx="284.6028"
     inkscape:cy="412.45736"
     inkscape:window-width="1920"
     inkscape:window-height="991"
     inkscape:window-x="2391"
     inkscape:window-y="-9"
     inkscape:window-maximized="1"
     inkscape:current-layer="layer1" />
  <defs
     id="defs1" />
  <g
     inkscape:label="Layer 1"
     inkscape:groupmode="layer"
     id="layer1"
     transform="translate(-29.652327,-39.434445)">
    <g
       id="lawn"
       transform="matrix(0.03527778,0,0,-0.03527778,2.8060193,373.991)">
      <path
         d="m 3475,9472.8658 c -96,-25.891 -183,-73.6899 -252,-138.4176 l -33,-30.8701 v 26.8869 c 0,13.9413 5,48.7947 11,76.6773 15,68.7109 6,76.6774 -62,61.7403 -90,-20.912 -179,-70.7025 -245,-135.4302 -125,-125.4721 -163,-289.7808 -103,-450.1062 l 19,-50.7863 -36,-63.7319 c -46,-81.6564 -68,-104.5601 -128,-135.4302 -48,-23.8994 -50,-23.8994 -87,-7.9664 -133,59.7486 -230,-123.4805 -106,-203.1453 23,-15.933 37,-31.866 37,-44.8115 0,-11.9497 16,-53.7737 35,-94.602 46,-95.5977 135,-188.2081 239,-247.9567 l 78,-45.8073 -78,-12.9455 c -206,-34.8533 -339,-104.5601 -365,-192.1914 -8,-25.891 -19,-39.8324 -33,-43.8156 -48,-11.9497 -122,-125.4721 -239,-366.4582 l -62,-126.4678 -241,-0.9959 c -233,0 -242,-0.9958 -275,-22.9036 -55,-35.8492 -74,-85.6397 -74,-196.1746 v -94.602 l 45,-4.979 45,-4.9791 3,-56.7611 3,-57.757 h -134 -133 l -22,29.8743 c -36,47.7989 -76,62.736 -151,57.757 -77,-5.9749 -111,-20.9121 -164,-74.6858 -53,-51.7821 -79,-105.5559 -84,-177.2542 -10,-114.5182 38,-205.1369 136,-255.9232 43,-22.9037 66,-27.8827 122,-27.8827 69,0 127,16.9288 159,44.8114 10,8.9623 50,13.9414 127,16.9288 120,2.9874 147,12.9455 127,45.8073 -10,14.9371 -28,16.9288 -167,12.9455 l -155,-2.9874 -37,32.8617 c -65,59.7486 -67,160.3255 -4,212.1076 l 31,25.8911 h 387 c 213,0 443,2.9874 510,6.9706 l 121,5.9749 -17,-38.8366 c -19,-44.8115 -22,-162.3171 -5,-205.1369 l 11,-26.8869 -132,-2.9874 -132,-2.9874 -3,-26.8869 -3,-27.8827 h 159 c 155,0 159,0 182,-23.8995 45,-48.7947 158,-68.7109 242,-43.8156 22,5.9749 59,28.8785 84,50.7863 125,109.5391 138,254.9274 33,387.3702 l -32,38.8366 93,181.2374 c 51,99.5811 96,185.2207 100,189.204 4,4.979 16,-6.9707 27,-24.8953 11,-17.9246 45,-60.7444 76,-93.6061 l 57,-61.7403 v -139.4134 -139.4134 l -30,-11.9497 c -84,-34.8534 -129,-111.5308 -121,-206.1328 1,-6.9706 17,-19.9162 37,-27.8826 50,-20.9121 356,-21.9079 373,-0.9959 6,6.9707 27,75.6816 46,151.3632 19,76.6774 43,165.3045 53,198.1662 l 18,59.7486 63,4.9791 63,4.979 24,-46.803 c 13,-24.8953 48,-72.6942 79,-105.5559 l 55,-59.7486 -15,-34.8534 c -8,-19.9162 -15,-61.7402 -15,-91.6145 0,-49.7905 4,-59.7486 31,-86.6355 27,-27.8827 34,-29.8743 74,-23.8995 54,6.9707 131,44.8115 179,86.6355 49,42.8199 96,139.4135 96,198.1663 0,37.8407 -6,54.7695 -31,85.6396 -32,39.8324 -68,108.5433 -69,131.447 0,5.9748 11,11.9497 25,11.9497 39,0 128,33.8575 177,67.7151 l 43,28.8785 16,-20.912 16,-19.9162 37,27.8827 c 100,75.6815 166,226.0489 169,383.3869 l 1,69.7067 48,-43.8157 c 54,-50.7863 69,-54.7695 91,-20.912 59,88.6271 76,286.7934 36,407.2864 -11,33.8575 -34,85.6397 -50,114.5182 -30,52.7779 -30,53.7737 -7,46.803 13,-3.9832 47,-21.9078 75,-40.8282 29,-18.9204 60,-33.8575 68,-33.8575 25,0 37,48.7947 30,119.4972 -18,166.3003 -110,350.5252 -227,451.102 l -53,46.8031 40,1.9916 c 22,0.9958 65,1.9916 95,2.9874 70,0 73,11.9498 25,109.5392 -65,134.4343 -224,275.8394 -358,317.6634 -32,9.9581 -55,21.9078 -52,26.8869 4,4.979 35,28.8785 70,54.7695 36,24.8953 65,51.7822 65,59.7487 0,36.8449 -168,125.472 -284,150.3673 -75,15.933 -190,11.9497 -241,-6.9707 -15,-5.9748 -29,-8.9623 -31,-6.9706 -2,0.9958 19,30.8701 46,66.7192 28,34.8534 50,68.7109 50,75.6816 0,6.9707 -26,21.9078 -57,33.8576 -72,27.8826 -207,34.8533 -278,15.9329 z m 223,-61.7402 c 12,-3.9833 22,-8.9623 22,-12.9455 0,-3.9833 -17,-28.8785 -37,-55.7654 -53,-69.7067 -80,-131.447 -65,-146.3841 9,-8.9623 23,-7.9665 60,5.9748 125,48.7947 201,56.7612 311,30.8702 68,-15.933 191,-69.7068 191,-83.6481 0,-4.979 -17,-20.912 -37,-35.8492 -62,-45.8072 -123,-107.5475 -123,-125.472 0,-12.9456 14,-17.9246 62,-22.9037 70,-6.9706 141,-36.845 225,-93.6061 74,-50.7864 113,-91.6146 158,-166.3003 l 35,-59.7486 -85,-11.9498 c -89,-12.9455 -136,-28.8785 -142,-49.7905 -3,-5.9748 27,-34.8533 66,-62.736 114,-82.6523 189,-182.2333 237,-312.6844 21,-57.757 42,-165.3045 33,-165.3045 -2,0 -25,10.9539 -50,23.8994 -59,28.8785 -173,60.7445 -193,52.778 -25,-9.9581 -19,-34.8534 18,-77.6732 79,-92.6104 126,-220.0741 126,-342.5587 0,-63.7319 -23,-174.2668 -36,-174.2668 -3,0 -22,12.9455 -42,29.8743 -46,35.8492 -104,60.7444 -120,50.7863 -10,-5.9748 -11,-24.8952 -5,-76.6774 16,-134.4343 -14,-258.9106 -83,-349.5293 -33,-43.8157 -44,-41.8241 -44,7.9664 0,35.8492 -2,39.8325 -22,36.845 -16,-1.9916 -26,-12.9455 -33,-34.8533 -6,-17.9246 -22,-43.8157 -35,-57.757 -31,-32.8618 -135,-82.6523 -180,-86.6355 -30,-2.9874 -35,0 -38,20.912 -2,13.9413 15,64.7277 42,119.4972 72,151.3632 81,195.1788 81,414.2571 0,195.1788 -6,241.9818 -52,428.1983 -30,119.4973 -76,244.9693 -144,389.3618 l -50,107.5475 28,19.9162 c 122,85.6397 158,183.2291 107,289.7808 -30,62.736 -93,86.6355 -174,64.7277 -31,-7.9665 -59,-26.8869 -97,-66.7193 l -53,-53.7738 -46,39.8324 c -118,103.5643 -298,142.4009 -488,105.5559 -42,-6.9707 -96,-22.9036 -121,-33.8575 l -46,-19.9162 -10,26.8868 c -72,186.2165 17,383.387 216,480.9763 36,17.9246 67,29.8744 69,27.8827 2,-1.9916 0,-25.891 -4,-53.7737 -11,-64.7277 -2,-151.3632 17,-158.3338 8,-3.9833 47,24.8952 98,72.6941 87,82.6523 174,133.4386 255,150.3673 44,8.9623 154,5.9749 198,-5.9748 z m -407,-545.704 c 89,-18.9204 154,-53.7737 214,-114.5182 27,-27.8827 53,-50.7863 58,-50.7863 6,0 36,28.8785 68,63.7319 89,96.5936 152,111.5307 196,46.803 47,-69.7067 22,-140.4092 -79,-213.1033 -37,-26.8869 -68,-53.7738 -68,-58.7528 0,-5.9749 26,-64.7277 59,-131.447 149,-305.7137 208,-557.6537 198,-852.4135 -5,-176.2584 -21,-241.9819 -89,-368.4498 -39,-71.6983 -40,-77.6732 -35,-142.4008 6,-72.6942 35,-145.3883 86,-220.0741 17,-24.8952 31,-51.7821 31,-61.7402 0,-73.69 -70,-167.2961 -155,-207.1285 -58,-27.8827 -90,-32.8618 -101,-14.9372 -14,21.9078 -6,87.6313 15,130.4512 11,23.8994 21,47.7988 21,52.7779 0,4.979 -31,39.8324 -69,78.669 -73,75.6816 -117,148.3757 -127,214.0992 -8,51.7821 -26,75.6816 -49,66.7193 -14,-4.9791 -17,-14.9372 -13,-55.7654 l 5,-48.7947 -45,-6.9707 c -58,-8.9623 -183,8.9623 -255,35.8492 -116,43.8156 -225,137.4218 -284,245.9651 l -17,32.8618 69,139.4134 c 58,115.514 72,138.4176 88,133.4385 32,-9.9581 95,6.9707 124,33.8576 27,24.8952 33,25.8911 153,27.8827 142,1.9916 237,19.9162 312,60.7444 52,27.8827 73,54.7696 64,78.669 -7,18.9204 -40,17.9246 -57,-1.9916 -63,-75.6816 -415,-117.5056 -432,-51.7822 -9,32.8618 -51,19.9163 -55,-16.9287 -7,-64.7277 -68,-92.6104 -132,-59.7486 -53,27.8827 -64,74.6857 -29,130.4511 32,51.7821 91,80.6606 202,98.5852 175,27.8827 347,97.5894 347,139.4134 0,26.8869 -31,29.8743 -71,6.9707 -68,-38.8366 -140,-61.7402 -255,-81.6564 -62,-9.9581 -133,-26.8869 -157,-37.8408 -56,-24.8953 -111,-72.6942 -131,-116.5098 -13,-25.8911 -23,-34.8534 -41,-34.8534 -14,0 -25,3.9833 -25,9.9581 0,16.9288 49,140.4093 76,189.204 14,25.891 24,55.7653 22,64.7276 -2,10.9539 -41,38.8366 -97,68.7109 -150,80.6607 -259,200.1579 -286,316.6677 -6,22.9036 -2,28.8785 24,41.824 38,19.9162 64,67.7151 56,104.5601 -5,24.8952 -2,28.8785 45,50.7863 67,30.8701 111,76.6774 155,161.3212 32,59.7487 44,72.6942 82,89.623 104,45.8072 261,59.7486 384,33.8575 z m -472,-978.8814 c -11,-20.912 -27,-61.7402 -35,-91.6145 l -16,-53.7738 -55,6.9707 -54,5.9748 -14,-33.8575 c -28,-66.7193 -93,-84.6439 -156,-42.8198 -81,53.7737 -31,143.3966 112,198.1662 63,22.9036 160,45.8072 205,46.8031 l 32,0.9958 z m -66,-231.028 c -15,-55.7653 -6,-214.0992 16,-294.7598 l 21,-79.6648 -106,-204.1411 c -58,-112.5265 -107,-205.1369 -108,-207.1285 -2,-0.9958 -19,4.979 -39,12.9455 -77,31.866 -184,7.9665 -248,-55.7653 l -39,-38.8366 v 69.7067 c 0,69.7067 0,69.7067 28,69.7067 52,0 55,8.9623 50,115.514 -6,107.5475 -24,165.3045 -58,183.229 -13,6.9707 -49,14.9372 -81,16.9288 -33,2.9874 -59,6.9707 -59,9.9581 0,5.9749 132,254.9274 170,321.6467 21,35.8492 49,75.6816 63,88.6271 l 26,22.9036 33,-33.8575 c 78,-76.6774 211,-74.6858 258,4.9791 17,28.8784 24,32.8617 50,28.8784 27,-3.9832 29,-6.9706 23,-30.8701 z m 139,-4.979 c 6,-10.9539 20,-30.8701 31,-43.8157 l 21,-21.9078 -55,-109.5391 c -30,-59.7486 -57,-109.5391 -60,-109.5391 -4,0 -12,36.8449 -19,81.6564 -10,70.7025 -8,170.2835 6,218.0824 6,22.9037 62,11.9498 76,-14.9371 z m -670,-475.9973 c 34,-12.9455 50,-63.7318 46,-140.4092 l -3,-51.7822 -367,-2.9874 -368,-1.9916 v 46.8031 c 0,94.6019 34,156.3422 90,164.3087 61,7.9664 577,-2.9875 602,-13.9414 z m 998,-242.9777 76,-16.9287 -32,-110.535 c -17,-60.7444 -40,-143.3966 -50,-182.2332 l -18,-72.6942 h -153 c -86,0 -154,3.9833 -158,9.9581 -9,13.9414 19,71.6984 47,96.5936 13,12.9455 42,28.8785 63,35.8492 l 40,13.9413 3,145.3883 3,145.3883 52,-24.8953 c 28,-12.9455 86,-30.8701 127,-39.8324 z m -1025,-63.7318 v -54.7696 l -282,-2.9874 -283,-1.9916 v 59.7486 59.7486 l 283,-1.9916 282,-2.9875 z m -988,-40.8282 27,-9.9581 -40,-18.9204 c -75,-32.8618 -123,-125.4721 -110,-212.1076 8,-52.7779 52,-118.5014 99,-146.3841 l 32,-19.9162 h -60 c -69,0 -127,22.9036 -167,65.7235 -114,121.4888 -14,348.5335 154,351.521 20,0.9958 49,-3.9833 65,-9.9581 z m 1328,-7.9665 c 46,-19.9162 101,-78.669 121,-126.4679 39,-93.6062 -11,-214.0992 -110,-264.8855 -52,-25.8911 -152,-21.9079 -193,7.9665 -70,51.7821 -101,136.4259 -84,227.0447 13,71.6983 49,121.4888 111,153.3547 53,26.8869 101,27.8827 155,2.9875 z"
         id="path5"
         style="stroke-width:0.997903" />
      <path
         d="m 3139,8613.4816 c -17,-19.9162 -17,-96.5936 1,-117.5056 15,-17.9246 51,-19.9162 68,-2.9874 18,17.9246 15,102.5684 -4,121.4888 -20,20.9121 -48,19.9162 -65,-0.9958 z"
         id="path6"
         style="stroke-width:0.997903" />
      <path
         d="m 2829,8593.5654 c -11,-27.8827 -5,-68.7109 13,-89.6229 15,-17.9246 55,-15.933 62,2.9874 10,26.8869 7,88.6271 -6,101.5727 -22,21.9078 -58,13.9413 -69,-14.9372 z"
         id="path7"
         style="stroke-width:0.997903" />
      <path
         d="m 3034,8280.881 c -16,-16.9287 -44,-37.8408 -62,-45.8072 -29,-11.9498 -37,-11.9498 -67,2.9874 -57,26.8869 -77,-6.9707 -27,-45.8073 53,-42.8198 160,-8.9623 208,65.7235 13,18.9204 14,26.8869 4,38.8366 -17,20.912 -22,18.9204 -56,-15.933 z"
         id="path8"
         style="stroke-width:0.997903" />
      <path
         d="m 2434,6698.5386 c -56,-21.9078 -72,-102.5684 -29,-144.3924 28,-28.8785 79,-32.8618 112,-9.9581 44,30.8701 50,110.5349 12,141.405 -20,14.9372 -71,21.9078 -95,12.9455 z m 55,-94.6019 c -17,-17.9246 -49,-9.9581 -49,10.9539 0,21.9078 33,34.8533 50,17.9246 12,-11.9498 12,-15.933 -1,-28.8785 z"
         id="path9"
         style="stroke-width:0.997903" />
      <path
         d="m 4336,6686.5889 c -21,-27.8827 -40,-70.7025 -69,-150.3673 -6,-16.9288 -10,-14.9372 -33,11.9497 -30,35.8492 -74,42.8198 -74,11.9497 0,-9.9581 7,-24.8952 17,-31.8659 22,-18.9204 53,-87.6313 53,-119.4972 0,-14.9372 6,-31.8659 13,-37.8408 22,-17.9246 43,7.9665 57,68.7109 18,77.6732 55,172.2752 84,215.095 43,62.736 -1,92.6103 -48,31.8659 z"
         id="path10"
         style="stroke-width:0.997903" />
      <path
         d="m 1794,6666.6727 c -50,-56.7612 -84,-150.3673 -84,-232.0238 0,-48.7947 11,-67.715 36,-62.736 15,2.9874 20,15.933 26,65.7235 10,86.6355 25,128.4595 64,179.2458 18,23.8995 30,49.7905 27,57.757 -8,20.912 -47,16.9288 -69,-7.9665 z"
         id="path11"
         style="stroke-width:0.997903" />
      <path
         d="m 4477,6648.7481 c -36,-28.8785 -89,-151.3631 -91,-212.1075 -1,-48.7947 0,-51.7822 24,-51.7822 22,0 26,4.9791 31,45.8073 8,51.7821 37,124.4763 69,167.2961 37,51.7821 14,87.6313 -33,50.7863 z"
         id="path12"
         style="stroke-width:0.997903" />
      <path
         d="m 1944,6587.0079 c -15,-11.9497 -40,-41.824 -55,-66.7193 -49,-75.6816 -36,-193.1872 16,-150.3673 9,7.9665 15,29.8743 15,55.7654 0,36.8449 6,49.7905 45,93.6061 43,48.7947 49,72.6942 20,83.6481 -8,2.9874 -26,-4.9791 -41,-15.933 z"
         id="path13"
         style="stroke-width:0.997903" />
      <path
         d="m 1573,6591.987 c -19,-6.9707 -16,-36.845 8,-77.6732 12,-18.9204 26,-58.7528 33,-87.6313 10,-45.8073 15,-51.7822 36,-51.7822 24,0 25,2.9875 23,51.7822 -4,84.6438 -61,179.2458 -100,165.3045 z"
         id="path14"
         style="stroke-width:0.997903" />
      <path
         d="m 773,6542.1964 c -19,-6.9706 -16,-29.8743 13,-91.6145 38,-82.6522 40,-85.6397 54,-85.6397 41,0 34,76.6774 -12,144.3925 -24,34.8534 -35,41.824 -55,32.8617 z"
         id="path15"
         style="stroke-width:0.997903" />
    </g>
  </g>
</svg>
