<?xml version="1.0" encoding="UTF-8" standalone="no"?>
<!-- Created with Inkscape (http://www.inkscape.org/) -->

<svg
   width="141.17836mm"
   height="112.8102mm"
   viewBox="0 0 141.17836 112.8102"
   version="1.1"
   id="svg1"
   inkscape:version="1.3.2 (091e20e, 2023-11-25, custom)"
   sodipodi:docname="pressure.svg"
   xmlns:inkscape="http://www.inkscape.org/namespaces/inkscape"
   xmlns:sodipodi="http://sodipodi.sourceforge.net/DTD/sodipodi-0.dtd"
   xmlns="http://www.w3.org/2000/svg"
   xmlns:svg="http://www.w3.org/2000/svg">
  <sodipodi:namedview
     id="namedview1"
     pagecolor="#ffffff"
     bordercolor="#000000"
     borderopacity="0.25"
     inkscape:showpageshadow="2"
     inkscape:pageopacity="0.0"
     inkscape:pagecheckerboard="0"
     inkscape:deskcolor="#d1d1d1"
     inkscape:document-units="mm"
     inkscape:zoom="0.69219276"
     inkscape:cx="274.49001"
     inkscape:cy="461.57663"
     inkscape:window-width="1920"
     inkscape:window-height="991"
     inkscape:window-x="2391"
     inkscape:window-y="-9"
     inkscape:window-maximized="1"
     inkscape:current-layer="layer1" />
  <defs
     id="defs1" />
  <g
     inkscape:label="Layer 1"
     inkscape:groupmode="layer"
     id="layer1"
     transform="translate(-32.671708,-26.460026)">
    <g
       id="pressure"
       transform="matrix(0.03527778,0,0,-0.03527778,-161.63073,200.99835)">
      <path
         d="m 6531,4937 c -25,-6 -46,-18 -49,-24 -2,-7 19,-37 47,-66 28,-30 51,-57 51,-60 0,-3 -19,1 -42,9 -59,22 -200,29 -271,14 -64,-13 -204,-79 -230,-108 -22,-24 -13,-47 24,-62 40,-17 119,-68 119,-77 0,-5 -18,-9 -40,-11 -154,-10 -361,-148 -456,-304 -56,-92 -47,-101 114,-112 39,-3 77,-8 83,-12 6,-4 -11,-19 -41,-35 -101,-55 -184,-141 -253,-259 -59,-103 -99,-292 -69,-322 9,-9 26,-5 70,16 59,29 142,58 142,49 0,-3 -12,-19 -26,-36 -35,-41 -77,-128 -104,-212 -29,-93 -31,-245 -4,-325 23,-66 43,-74 88,-33 77,70 71,72 71,-25 0,-108 21,-180 78,-264 49,-74 143,-149 211,-169 25,-7 46,-18 46,-23 0,-5 -28,-69 -62,-142 l -62,-133 -60,-10 c -34,-6 -105,-14 -158,-17 -68,-5 -107,-13 -128,-25 -55,-34 -28,-89 29,-57 15,9 66,18 127,22 56,4 116,11 134,16 28,8 31,7 25,-7 -12,-32 -17,-102 -11,-137 12,-62 34,-67 273,-64 l 208,3 3,47 c 3,54 -14,96 -62,146 -30,32 -30,34 -11,44 11,6 57,48 102,94 81,81 83,83 115,73 18,-6 78,-11 133,-13 l 100,-2 21,-134 c 29,-178 39,-215 71,-240 25,-19 36,-20 257,-18 215,3 231,4 234,21 11,56 -41,157 -97,190 -17,10 -50,21 -73,25 l -43,8 -7,129 c -3,72 -11,146 -17,165 -10,32 -8,37 36,94 53,66 120,193 129,243 6,32 6,33 33,17 14,-8 36,-31 49,-49 26,-41 73,-67 122,-70 26,-1 83,-31 207,-108 94,-59 177,-107 184,-107 7,0 25,11 39,25 l 26,25 270,-163 c 350,-212 346,-210 392,-258 41,-42 74,-49 80,-17 9,45 -106,125 -628,439 -72,44 -75,47 -72,80 l 3,35 -160,99 c -147,90 -161,102 -161,128 0,37 -22,79 -59,109 -16,14 -44,54 -62,89 -40,81 -94,160 -163,242 l -54,64 34,12 c 59,21 181,109 233,168 28,31 66,86 85,122 22,41 46,72 64,82 61,34 67,137 11,183 -33,28 -68,32 -117,15 -24,-8 -37,-7 -60,5 -43,22 -68,62 -98,156 l -27,82 31,62 c 56,112 66,218 33,325 -39,124 -127,222 -257,287 -105,52 -110,49 -105,-66 l 3,-95 -50,47 c -69,64 -160,122 -235,148 -76,27 -284,37 -356,17 z m 289,-62 c 98,-26 180,-75 260,-156 41,-41 81,-83 88,-93 33,-42 61,20 61,137 1,42 4,77 8,77 17,0 106,-66 148,-111 72,-77 100,-146 100,-249 0,-67 -5,-98 -25,-148 -14,-34 -27,-61 -30,-59 -166,95 -336,128 -486,92 -63,-14 -170,-60 -180,-76 -8,-14 -24,-11 -24,4 0,8 -14,34 -31,60 -41,63 -100,91 -177,85 -49,-4 -60,-9 -87,-41 -34,-39 -55,-95 -55,-144 0,-43 46,-128 90,-166 l 39,-33 -56,-69 c -225,-283 -380,-643 -415,-964 -13,-120 -2,-247 31,-346 22,-65 27,-115 11,-115 -29,0 -111,50 -155,95 -92,92 -138,231 -116,346 7,34 17,70 23,79 16,24 3,50 -24,50 -26,0 -86,-37 -134,-82 l -32,-30 -7,33 c -13,57 -7,186 10,246 27,95 84,193 148,256 80,79 74,92 -36,84 -47,-3 -105,-14 -136,-26 -30,-11 -57,-19 -59,-16 -10,9 21,104 59,181 67,137 184,247 318,298 41,16 56,27 56,42 0,34 -133,84 -227,84 -27,0 -48,3 -48,8 0,4 21,33 45,64 55,69 147,140 235,182 56,26 80,31 170,36 98,5 105,6 108,27 4,27 -102,139 -141,148 -15,4 -27,11 -27,15 0,9 102,55 155,69 97,26 219,7 326,-52 58,-32 89,-32 89,0 0,29 -45,115 -78,150 -18,20 -25,34 -18,37 26,10 175,5 226,-9 z m -186,-526 c 23,-20 43,-52 57,-90 12,-33 28,-59 35,-59 8,0 36,16 63,36 144,103 358,111 547,20 l 69,-33 33,-109 c 31,-101 37,-113 86,-160 48,-46 52,-54 48,-87 -4,-31 1,-42 29,-70 19,-19 40,-36 48,-38 25,-9 -27,-89 -113,-175 -66,-66 -98,-89 -168,-123 l -88,-42 -1,-102 c -1,-56 -4,-127 -8,-159 l -6,-56 -159,99 c -88,54 -169,99 -181,99 -12,0 -42,-15 -65,-33 l -43,-33 -66,34 c -36,19 -79,47 -95,61 -30,27 -86,133 -86,163 0,27 -29,51 -46,37 -20,-16 -17,-48 8,-115 29,-75 109,-156 207,-209 86,-47 121,-88 128,-149 9,-75 -52,-147 -111,-132 -14,3 -48,26 -75,50 -26,24 -84,61 -127,82 -89,44 -195,141 -235,214 -27,51 -62,62 -67,22 -7,-46 118,-195 208,-249 16,-9 30,-21 30,-25 0,-4 -18,-22 -40,-39 -46,-37 -52,-69 -18,-91 l 22,-15 -37,-82 c -21,-44 -55,-130 -76,-191 -43,-123 -77,-185 -132,-244 -35,-38 -145,-114 -153,-105 -2,2 19,53 46,112 65,145 76,223 43,311 -124,328 38,874 386,1303 33,40 59,76 59,81 0,4 -25,32 -56,62 -82,81 -100,127 -74,194 28,74 111,91 174,35 z m 758,-1116 c 53,-69 118,-175 118,-193 0,-8 -3,-11 -6,-7 -3,3 -27,-1 -52,-8 -45,-14 -48,-13 -84,10 -36,24 -38,28 -38,79 0,51 11,176 15,176 1,0 22,-26 47,-57 z m -247,-127 210,-133 -3,-39 c -2,-21 -5,-40 -7,-43 -2,-2 -20,7 -40,19 -20,12 -44,20 -53,18 -10,-3 -100,-64 -199,-137 -190,-137 -225,-153 -242,-108 -5,12 -6,27 -4,32 2,6 65,55 139,110 84,63 137,109 140,123 8,30 -15,55 -93,98 -49,28 -68,46 -91,87 l -30,52 26,28 c 14,15 28,27 31,26 3,0 101,-60 216,-133 z m -148,-134 c 22,-14 19,-17 -108,-113 -117,-89 -132,-98 -152,-88 -12,6 -73,43 -135,82 l -113,70 32,33 c 18,19 36,34 40,34 3,0 35,-25 69,-56 86,-77 137,-92 199,-60 36,19 89,79 97,111 6,26 13,25 71,-13 z m 573,-9 c 60,-35 67,-108 17,-158 -60,-60 -121,-59 -158,2 -53,85 -11,170 84,172 16,1 42,-6 57,-16 z m -353,-201 c -74,-182 -236,-324 -418,-367 -84,-19 -148,-19 -238,2 l -74,17 -31,-39 c -56,-73 -140,-148 -193,-172 -63,-29 -70,-55 -20,-77 41,-18 94,-73 102,-109 l 7,-27 -183,2 -184,3 -3,40 c -1,22 3,58 11,80 12,35 22,44 83,75 176,88 245,171 315,377 28,83 108,273 115,273 2,0 54,-32 116,-71 92,-57 116,-77 131,-109 22,-45 74,-75 115,-65 15,3 104,62 197,130 102,73 171,118 173,110 2,-7 -8,-40 -21,-73 z m 721,-138 c 2,-1 -7,-17 -19,-34 -15,-20 -30,-30 -41,-27 -10,3 -75,42 -146,86 l -129,81 31,33 31,33 135,-84 c 74,-47 137,-86 138,-88 z m -847,-330 c 5,-82 11,-154 13,-160 2,-6 28,-14 56,-16 29,-3 63,-14 78,-25 27,-20 72,-79 72,-94 0,-5 -90,-9 -200,-9 -198,0 -201,0 -210,23 -8,19 -60,298 -60,323 0,6 25,18 55,29 31,10 81,35 113,56 31,21 61,34 65,29 5,-4 13,-75 18,-156 z"
         id="path44" />
      <path
         d="m 7013,4003 c -32,-49 -14,-133 29,-133 22,0 58,51 58,82 0,70 -54,102 -87,51 z"
         id="path45" />
      <path
         d="m 7346,3977 c -25,-19 -33,-89 -11,-110 22,-23 40,-21 65,5 22,24 27,87 8,106 -16,16 -40,15 -62,-1 z"
         id="path46" />
      <path
         d="m 7113,3643 c -38,-13 9,-108 67,-138 63,-33 175,-7 168,38 -3,23 -4,23 -89,11 -44,-7 -82,14 -99,56 -12,30 -27,40 -47,33 z"
         id="path47" />
      <path
         d="m 8848,2667 c -17,-14 -55,-215 -45,-241 6,-16 42,-22 50,-8 7,10 37,187 37,216 0,32 -22,50 -42,33 z"
         id="path53" />
      <path
         d="m 8544,2505 c -7,-17 -3,-24 81,-124 58,-70 90,-87 101,-56 7,18 -30,75 -94,147 -44,48 -78,61 -88,33 z"
         id="path54" />
      <path
         d="m 9010,2402 c -77,-57 -94,-77 -86,-97 10,-26 37,-16 112,41 73,56 90,86 58,98 -9,3 -16,6 -17,6 -1,0 -31,-22 -67,-48 z"
         id="path55" />
      <path
         d="m 7948,2243 c -25,-21 -106,-92 -179,-158 -74,-66 -176,-156 -226,-200 -90,-76 -111,-104 -98,-125 7,-12 800,-14 1275,-3 l 303,6 113,109 113,108 h 79 c 83,0 111,13 98,45 -4,11 -20,15 -58,15 h -53 l 98,91 c 93,87 113,118 85,135 -18,11 -411,4 -423,-7 -6,-6 -6,-15 1,-26 9,-15 30,-16 172,-14 89,1 162,-1 161,-6 -1,-4 -40,-44 -88,-88 -73,-68 -93,-81 -131,-87 -25,-3 -180,-7 -344,-7 -297,-1 -299,-1 -281,19 20,22 14,50 -11,50 -8,0 -35,-16 -59,-35 l -42,-35 -325,2 -325,3 100,90 100,90 116,5 c 116,5 116,5 116,30 v 25 l -121,3 -121,3 z m 1132,-342 -85,-79 -310,-7 c -170,-4 -326,-5 -345,-3 l -34,3 87,75 87,75 237,5 c 131,3 285,7 343,8 l 104,2 z m -695,61 c -6,-4 -47,-40 -91,-80 l -82,-72 -329,2 -330,3 86,77 86,77 h 334 c 184,1 331,-3 326,-7 z"
         id="path56" />
    </g>
  </g>
</svg>
