<?xml version="1.0" encoding="UTF-8" standalone="no"?>
<!-- Created with Inkscape (http://www.inkscape.org/) -->

<svg
   width="132.29742mm"
   height="111.63317mm"
   viewBox="0 0 132.29742 111.63317"
   version="1.1"
   id="svg1"
   inkscape:version="1.3.2 (091e20e, 2023-11-25, custom)"
   sodipodi:docname="weed.svg"
   xmlns:inkscape="http://www.inkscape.org/namespaces/inkscape"
   xmlns:sodipodi="http://sodipodi.sourceforge.net/DTD/sodipodi-0.dtd"
   xmlns="http://www.w3.org/2000/svg"
   xmlns:svg="http://www.w3.org/2000/svg">
  <sodipodi:namedview
     id="namedview1"
     pagecolor="#ffffff"
     bordercolor="#000000"
     borderopacity="0.25"
     inkscape:showpageshadow="2"
     inkscape:pageopacity="0.0"
     inkscape:pagecheckerboard="0"
     inkscape:deskcolor="#d1d1d1"
     inkscape:document-units="mm"
     inkscape:zoom="0.69219276"
     inkscape:cx="226.81543"
     inkscape:cy="548.25768"
     inkscape:window-width="1920"
     inkscape:window-height="991"
     inkscape:window-x="2391"
     inkscape:window-y="-9"
     inkscape:window-maximized="1"
     inkscape:current-layer="layer1" />
  <defs
     id="defs1" />
  <g
     inkscape:label="Layer 1"
     inkscape:groupmode="layer"
     id="layer1"
     transform="translate(-44.97917,-3.4395635)">
    <g
       id="weed"
       transform="matrix(0.03527778,0,0,-0.03527778,17.115475,177.33802)">
      <path
         d="m 3179,4915 c -119,-29 -252,-110 -320,-195 -39,-48 -43,-44 -54,63 -7,61 -9,67 -30,67 -32,0 -136,-72 -186,-128 -82,-94 -127,-223 -115,-334 7,-73 38,-160 70,-203 l 26,-33 -20,-56 c -24,-70 -72,-138 -119,-169 -33,-22 -40,-23 -62,-11 -64,36 -150,2 -170,-66 -19,-63 3,-117 59,-148 23,-13 42,-30 42,-39 0,-34 66,-137 119,-185 32,-29 91,-68 139,-91 l 83,-40 -33,-20 c -75,-46 -201,-98 -330,-135 -166,-48 -219,-76 -247,-134 -17,-36 -28,-46 -71,-61 -98,-35 -180,-152 -184,-260 -1,-39 -9,-63 -31,-96 l -30,-45 -6,30 c -4,16 -8,74 -9,129 -1,55 -5,126 -9,158 -7,58 -7,58 29,87 41,32 84,107 94,161 22,124 -72,292 -216,388 -86,58 -102,56 -139,-22 -76,-164 -78,-370 -4,-477 34,-49 99,-90 142,-90 h 31 l 6,-82 c 3,-46 8,-141 12,-213 l 6,-130 -32,50 c -18,28 -42,61 -55,75 -13,15 -25,44 -29,73 -8,64 -36,115 -91,166 -56,52 -109,76 -195,90 -117,19 -262,7 -273,-23 -8,-20 48,-143 92,-201 49,-65 88,-95 166,-132 73,-33 189,-38 242,-10 l 31,17 37,-49 c 49,-68 95,-173 95,-219 0,-22 -3,-73 -6,-115 l -7,-75 -45,-7 c -92,-14 -193,-73 -247,-146 l -31,-40 -248,-2 c -223,-2 -250,-4 -260,-19 -22,-35 3,-38 275,-39 l 264,-1 20,28 c 67,93 145,146 235,160 42,7 43,6 37,-17 -4,-13 -7,-45 -7,-71 0,-42 -3,-48 -20,-48 -48,0 -135,-72 -128,-106 6,-32 37,-27 78,10 30,27 49,36 76,36 h 36 l -4,-78 c -3,-76 -3,-77 22,-77 23,0 26,5 34,60 5,33 10,62 12,64 1,1 21,-7 43,-19 40,-23 71,-22 71,3 0,22 -31,45 -96,71 l -59,24 1,71 c 0,39 3,73 6,77 12,11 116,-26 164,-59 27,-19 64,-54 83,-78 27,-35 42,-46 75,-51 22,-5 245,-6 495,-4 363,3 456,7 467,18 7,7 37,85 66,173 l 53,160 30,-5 c 17,-3 83,-5 148,-5 64,0 117,-3 117,-7 0,-4 25,-34 55,-67 55,-59 56,-59 34,-75 -39,-27 -59,-68 -59,-123 0,-28 3,-54 8,-56 11,-8 1038,-18 1056,-11 21,8 21,50 0,58 -9,3 -140,6 -292,6 h -277 l 3,43 c 3,34 -6,61 -51,152 -75,152 -74,151 -36,159 54,10 172,72 221,115 98,87 156,207 167,343 l 6,88 59,-47 c 46,-37 62,-44 75,-36 20,13 48,97 62,189 18,119 -18,285 -85,397 -33,54 -34,58 -13,51 21,-6 90,-42 153,-79 49,-29 64,-16 64,56 0,189 -114,391 -293,519 -27,19 -44,36 -39,38 5,1 61,6 123,10 98,6 114,10 117,25 2,9 -15,57 -39,105 -34,71 -57,102 -123,167 -106,105 -197,153 -320,170 -43,6 -47,8 -34,21 8,8 48,27 89,42 92,34 99,54 42,107 -140,131 -377,177 -540,105 -25,-11 -48,-18 -51,-16 -4,5 49,86 90,138 17,21 19,30 10,41 -30,36 -280,49 -393,22 z m 296,-57 c 4,-3 -10,-30 -29,-60 -48,-72 -81,-165 -65,-184 15,-18 43,-18 58,0 6,7 44,28 83,47 70,32 78,34 188,34 105,0 120,-2 175,-28 33,-15 77,-39 97,-54 l 37,-25 -58,-29 c -61,-31 -155,-121 -148,-142 2,-7 36,-15 86,-19 108,-9 175,-29 246,-76 71,-45 169,-150 208,-221 l 28,-51 h -50 c -53,0 -179,-22 -223,-39 -46,-18 -35,-42 37,-80 77,-39 190,-141 235,-211 43,-67 89,-179 97,-235 l 6,-47 -51,26 c -99,50 -236,73 -248,41 -4,-10 11,-34 39,-64 53,-57 99,-143 121,-228 18,-70 21,-214 5,-277 l -11,-44 -58,40 c -41,29 -69,41 -97,42 -35,1 -38,-1 -35,-24 14,-136 14,-170 -3,-226 -43,-151 -138,-249 -301,-310 l -64,-24 -1,28 c -2,43 1,54 27,87 119,157 147,451 71,745 -56,217 -148,428 -277,639 l -59,96 49,46 c 87,80 112,175 67,259 -64,121 -229,101 -298,-37 -13,-26 -24,-49 -25,-51 -1,-1 -28,14 -60,33 -98,60 -180,80 -319,80 -132,0 -197,-16 -304,-75 -62,-34 -59,-36 -94,49 -42,102 -28,236 34,333 31,48 132,148 150,148 5,0 9,-15 9,-32 1,-18 11,-62 23,-98 30,-89 51,-92 100,-11 66,106 183,189 317,226 55,15 271,17 285,3 z m 116,-577 c 57,-57 35,-138 -60,-220 -33,-29 -61,-60 -61,-69 0,-9 17,-41 39,-72 137,-196 256,-461 317,-705 34,-135 44,-346 21,-457 -18,-84 -60,-184 -101,-237 -50,-66 -33,-157 63,-348 52,-105 59,-130 41,-164 -10,-18 -23,-19 -195,-19 -102,0 -185,2 -185,5 0,4 7,19 15,36 18,34 69,69 103,69 35,0 28,35 -12,60 -67,41 -141,132 -163,201 -16,49 -26,65 -42,67 -27,4 -35,-17 -23,-61 12,-44 7,-47 -98,-47 -167,0 -294,51 -405,164 -164,167 -205,376 -140,723 15,83 25,158 22,165 -3,8 -38,27 -79,41 -122,45 -215,118 -269,211 -34,60 -36,72 -10,79 31,8 62,66 59,109 -2,33 2,40 38,66 76,56 104,100 156,247 16,45 53,71 153,105 84,30 231,37 312,17 68,-18 158,-61 212,-101 19,-14 41,-26 48,-26 7,0 26,28 42,63 36,75 49,92 87,112 45,23 82,19 115,-14 z M 1565,3505 c 55,-41 139,-136 162,-183 46,-93 31,-206 -35,-265 -20,-19 -21,-18 -27,15 -3,18 -11,64 -18,102 -13,72 -35,102 -58,79 -9,-9 -8,-38 4,-120 9,-59 14,-110 11,-112 -13,-14 -81,39 -108,82 -26,42 -30,61 -34,135 -4,87 11,171 43,250 15,35 29,39 60,17 z m 1091,-242 c -10,-32 -36,-195 -36,-223 0,-25 -7,-31 -72,-58 -40,-17 -115,-42 -166,-56 l -94,-25 7,48 c 5,38 3,52 -13,71 l -19,24 -59,-23 c -84,-33 -122,-38 -131,-16 -12,33 55,81 154,110 208,62 259,80 336,121 94,49 100,50 93,27 z m -437,-359 c -45,-121 -179,-219 -290,-212 l -52,3 77,63 c 79,64 93,94 49,100 -14,2 -44,-17 -93,-58 -39,-34 -74,-60 -77,-57 -8,8 45,119 70,145 36,39 95,65 131,57 81,-16 101,-15 151,8 28,13 51,21 53,17 1,-4 -7,-34 -19,-66 z m -954,20 c 80,-20 137,-55 174,-106 48,-65 39,-72 -34,-28 -78,48 -107,56 -123,37 -18,-21 -5,-42 36,-61 20,-9 62,-32 92,-51 l 55,-34 -30,-11 c -77,-30 -210,16 -288,99 -48,52 -102,145 -92,161 10,15 144,12 210,-6 z m 1350,-51 c 14,-147 54,-260 126,-363 l 41,-59 -26,-66 c -14,-36 -31,-94 -38,-130 -11,-54 -16,-65 -33,-65 -67,-1 -157,-80 -177,-156 l -12,-44 h -243 -242 l -51,54 c -57,61 -143,110 -218,127 -60,12 -56,-4 -43,174 9,124 33,188 96,263 32,36 39,40 57,31 36,-19 156,-6 220,23 62,29 137,92 168,142 17,29 29,35 97,50 43,9 119,32 168,50 50,19 93,34 97,35 3,0 9,-29 13,-66 z m 375,-559 c 25,-9 46,-18 47,-19 2,-1 -19,-69 -46,-151 l -49,-149 -191,-3 c -210,-3 -208,-3 -176,58 20,39 60,68 104,75 60,10 81,22 81,47 0,28 33,149 54,200 l 16,37 57,-39 c 32,-21 78,-46 103,-56 z"
         id="path48" />
      <path
         d="m 2952,3948 c -19,-19 -14,-82 9,-112 38,-48 84,-24 84,44 0,62 -57,104 -93,68 z"
         id="path49" />
      <path
         d="m 2630,3921 c -24,-47 2,-111 45,-111 28,0 45,26 45,68 0,53 -67,85 -90,43 z"
         id="path50" />
      <path
         d="m 2860,3560 c -39,-43 -51,-50 -82,-50 -20,0 -40,5 -43,10 -3,6 -17,10 -31,10 -30,0 -33,-29 -4,-55 31,-28 98,-30 150,-3 49,25 92,81 88,112 -5,36 -31,27 -78,-24 z"
         id="path51" />
      <path
         d="m 3311,3185 c -42,-81 -96,-130 -212,-190 -150,-78 -189,-124 -189,-227 0,-53 19,-98 42,-98 5,0 24,-12 41,-26 53,-44 103,-33 291,67 199,105 282,177 345,298 43,83 50,115 28,124 -22,8 -31,-3 -76,-90 -60,-115 -120,-168 -312,-272 -85,-46 -171,-86 -191,-89 -35,-4 -38,-3 -38,20 0,33 -23,52 -51,43 -21,-7 -22,-5 -17,44 7,67 23,84 150,151 118,63 201,138 242,218 33,65 34,92 4,92 -18,0 -30,-14 -57,-65 z"
         id="path52" />
    </g>
  </g>
</svg>
